<svg xmlns="http://www.w3.org/2000/svg" width="960" height="560" fill="none" viewBox="0 0 960 560"><rect width="960" height="560" fill="#f3f4f6" rx="28"/><rect width="888" height="484" x="36" y="38" fill="#fff" stroke="#d1d5db" rx="18"/><rect width="888" height="76" x="36" y="38" fill="#f8fafc" rx="18"/><circle cx="72" cy="76" r="13" fill="#ff5f57"/><circle cx="110" cy="76" r="13" fill="#febc2e"/><circle cx="148" cy="76" r="13" fill="#28c840"/><text x="480" y="84" fill="#374151" font-family="-apple-system, BlinkMacSystemFont, 'Segoe UI', sans-serif" font-size="28" font-weight="700" text-anchor="middle">WeSight 2026.6.1-preview.1-arm64</text><text x="480" y="154" fill="#6b7280" font-family="-apple-system, BlinkMacSystemFont, 'Segoe UI', sans-serif" font-size="24" text-anchor="middle">2 个项目</text><rect width="146" height="146" x="190" y="258" fill="#0f3b33" rx="32"/><rect width="122" height="122" x="202" y="270" fill="url(#iconGradient)" rx="28"/><path fill="#ffe0a3" d="M232 326c0-29 16-52 37-52s37 23 37 52c0 27-17 45-37 45s-37-18-37-45z"/><rect width="58" height="38" x="240" y="304" fill="#162b30" rx="14"/><path stroke="#ffd166" stroke-linecap="round" stroke-width="4" d="M252 323c7 9 13 9 20 0m12 0c7 9 13 9 20 0"/><circle cx="269" cy="355" r="9" fill="#ffbe5b"/><text x="263" y="448" fill="#111827" font-family="-apple-system, BlinkMacSystemFont, 'Segoe UI', sans-serif" font-size="28" font-weight="600" text-anchor="middle">WeSight.app</text><path stroke="#6b7280" stroke-dasharray="14 12" stroke-linecap="round" stroke-linejoin="round" stroke-width="8" d="M430 319h96m0 0-42-42m42 42-42 42"/><rect width="178" height="120" x="640" y="284" fill="#39bdf8" rx="20"/><path fill="#2aa7e8" d="M640 314c0-17 14-30 30-30h43l22 24h53c17 0 30 13 30 30v66H640v-90z"/><path stroke="#0b78bc" stroke-linecap="round" stroke-linejoin="round" stroke-width="10" d="M723 331l-24 45m31-45 24 45m-44-17h33"/><text x="729" y="448" fill="#111827" font-family="-apple-system, BlinkMacSystemFont, 'Segoe UI', sans-serif" font-size="28" font-weight="600" text-anchor="middle">Applications</text><text x="480" y="506" fill="#6b7280" font-family="-apple-system, BlinkMacSystemFont, 'Segoe UI', sans-serif" font-size="22" text-anchor="middle">将 WeSight.app 拖到 Applications 文件夹完成安装</text><defs><linearGradient id="iconGradient" x1="202" x2="324" y1="270" y2="392" gradientUnits="userSpaceOnUse"><stop stop-color="#f8e8a8"/><stop offset="1" stop-color="#0c5145"/></linearGradient></defs></svg>